<?xml version="1.0" encoding="utf-8"?>
<!-- Generator: Adobe Illustrator 25.0.1, SVG Export Plug-In . SVG Version: 6.00 Build 0)  -->
<svg version="1.1" id="Layer_1" xmlns="http://www.w3.org/2000/svg" xmlns:xlink="http://www.w3.org/1999/xlink" x="0px" y="0px"
	 viewBox="0 0 600 600" style="enable-background:new 0 0 600 600;" xml:space="preserve">
<style type="text/css">
	.st0{fill:#F2A344;}
	.st1{display:none;}
	.st2{display:inline;}
	.st3{font-family:'SegoeUISymbol';}
	.st4{font-size:198.1715px;}
</style>
<g>
	<path class="st0" d="M262.2,299.8L0,37.6L38,0.4l261.8,262.2L562,0.4l38,37.2L337.8,299.8L600,562l-38,37.6L299.8,337.8L38,599.6
		L0,562L262.2,299.8z"/>
</g>
<g>
	<g class="st1">
		<path class="st2" d="M104.1,98.3L41.3,35.5l9.1-8.9l62.7,62.8l62.8-62.8l9.1,8.9l-62.8,62.8l62.8,62.8l-9.1,9l-62.8-62.7
			l-62.7,62.7l-9.1-9L104.1,98.3z"/>
	</g>
</g>
<text transform="matrix(1 0 0 1 32.237 167.6776)" class="st1 st3 st4">⭘</text>
<g>
	<path class="st0" d="M0,300.2c0-83.1,29.4-153.9,88.1-212.4C146.9,29.3,217.4,0,299.6,0c83,0,153.8,29.5,212.5,88.4
		c58.6,58.9,87.9,129.5,87.9,211.8c0,83.1-29.5,153.8-88.5,212.2c-59,58.4-129.7,87.6-211.9,87.6c-83,0-153.7-29.4-212.1-88.2
		C29.2,453,0,382.5,0,300.2z M50.1,300.2c0,69,24.3,127.9,73,176.6c48.7,48.7,107.5,73,176.5,73c69.3,0,128.3-24.5,177.1-73.4
		c48.8-49,73.2-107.7,73.2-176.2c0-69.3-24.5-128.3-73.6-177c-49.1-48.7-108-73-176.7-73c-69.3,0-128.2,24.5-176.7,73.4
		C74.4,172.6,50.1,231.4,50.1,300.2z"/>
</g>
</svg>
