<?xml version="1.0" encoding="utf-8"?>
<!-- Generator: Adobe Illustrator 25.0.1, SVG Export Plug-In . SVG Version: 6.00 Build 0)  -->
<svg version="1.1" id="Layer_1" xmlns="http://www.w3.org/2000/svg" xmlns:xlink="http://www.w3.org/1999/xlink" x="0px" y="0px"
	 viewBox="0 0 328.3 109.6" style="enable-background:new 0 0 328.3 109.6;" xml:space="preserve">
<style type="text/css">
	.st0{display:none;fill:#D6D6D6;}
	.st1{fill:#D6D6D6;}
	.st2{fill:#1E1E1E;}
	.st3{fill:#F2A344;}
</style>
<path class="st0" d="M44.1,84l5.9-0.5l-8.7-10.8l6.4-12.3l-5.9,0.5l-3.6,7.8l-5.2-7l-5.9,0.5l8.5,10.7l-5.7,10.4
	c-1.1,0.1-2.2,0.4-3.2,0.9c-0.6,0.3-1.2,0.7-1.7,1.2l-8-4.6l1.3-13.6L13,69.8l-0.5,8.4l-7.3-4.5L0,76.3l11.6,6.6l-1.7,14l5.1-2.5
	l1-8.8l5.8,3.6l-1.3,1.9c-1.2,1.7-1.9,3.4-2.1,5.1c-0.2,1.7,0,3.2,0.8,4.7c0.8,1.5,2,2.8,3.6,3.9c1.7,1.1,3.3,1.8,5,2
	c1.6,0.2,3.2-0.1,4.6-0.9c1.5-0.8,2.8-2,4-3.8l2.1-3.1c1.2-1.7,1.9-3.4,2.1-5c0.2-1.6-0.1-3.2-0.8-4.6c-0.8-1.5-2-2.8-3.6-3.9
	c-0.5-0.3-1-0.6-1.5-0.9l4-7.4L44.1,84z M34.2,95.8l-2.1,3.1c-0.9,1.3-1.9,2-3,2.3c-1.1,0.3-2.2,0-3.4-0.8c-1.2-0.8-1.8-1.8-2-2.9
	c-0.1-1.1,0.2-2.3,1.1-3.6l2.1-3.1c0.9-1.3,1.8-2,3-2.3c1.1-0.3,2.2,0,3.4,0.8c1.1,0.8,1.8,1.7,2,2.9C35.5,93.4,35.1,94.6,34.2,95.8
	z"/>
<g>
	<path class="st1" d="M261.3,65.8c-3.1,3.1-4.6,7.4-4.6,13c0,4.8,1.7,8.5,5,11.1c3.3,2.6,8,4,14.1,4c5.8,0,10.7-1.6,14.9-4.8
		c4.1-3.2,7.3-7.9,9.4-14c2.1-6.1,3.2-13.4,3.2-21.8h17c0,11.8-1.9,21.9-5.6,30.4c-3.7,8.4-9.2,14.9-16.3,19.4
		c-7.2,4.5-15.8,6.7-25.9,6.7c-6.9,0-12.7-1.2-17.6-3.6c-4.9-2.4-8.6-5.9-11.1-10.5c-2.6-4.6-3.9-10.2-3.9-16.7
		c0-8.8,2.5-15.8,7.5-21.1c5-5.3,12-8.3,21-9.2l6.2,12.7C268.8,61.2,264.4,62.8,261.3,65.8z M266.6,65.7c-3.5-3.7-6.5-7.5-8.9-11.4
		c-2.4-3.9-4.3-7.9-5.5-12c-1.3-4.1-1.9-8.4-1.9-12.7c0-9.4,2.6-16.7,7.7-21.9c5.2-5.2,12.5-7.7,21.9-7.7c9.4,0,16.6,2.5,21.8,7.4
		c5.1,5,7.7,12,7.7,21.1v2.2h-17.7v-2.2c0-4.4-1-7.8-3.1-10.2c-2-2.4-5-3.6-8.7-3.6c-4,0-7.2,1.3-9.4,3.9c-2.2,2.6-3.3,6.3-3.3,11
		c0,2.8,0.6,5.7,1.7,8.8c1.1,3.1,2.7,6.4,4.9,9.7c2.1,3.3,4.7,6.6,7.7,9.8l46.8,51.7h-21L266.6,65.7z"/>
</g>
<g>
	<path class="st2" d="M0,0.5h9.2l22.1,39l-0.8,0.9V0.5h8.2v50.7h-9.2l-22-38.4l0.8-0.9v39.3H0V0.5z"/>
	<path class="st2" d="M52.8,49.4c-2.8-1.5-4.9-3.7-6.4-6.6C44.8,40,44,36.8,44,33.1V18.7c0-3.7,0.8-7,2.3-9.8c1.5-2.8,3.7-5,6.4-6.6
		c2.8-1.5,6-2.3,9.6-2.3s6.8,0.8,9.6,2.3c2.8,1.5,4.9,3.7,6.4,6.6c1.5,2.8,2.3,6.1,2.3,9.8v14.4c0,3.7-0.8,7-2.3,9.8
		c-1.5,2.8-3.7,5-6.4,6.6c-2.8,1.5-6,2.3-9.6,2.3S55.6,51,52.8,49.4z M67.5,42.2c1.5-0.8,2.6-2,3.4-3.6c0.8-1.5,1.2-3.3,1.2-5.4
		V18.4c0-2-0.4-3.8-1.2-5.4c-0.8-1.5-1.9-2.7-3.4-3.6c-1.5-0.8-3.2-1.3-5.1-1.3s-3.6,0.4-5.1,1.3c-1.5,0.8-2.6,2-3.4,3.6
		s-1.2,3.3-1.2,5.4v14.9c0,2,0.4,3.8,1.2,5.4c0.8,1.5,1.9,2.7,3.4,3.6c1.5,0.8,3.2,1.3,5.1,1.3S66,43.1,67.5,42.2z"/>
	<path class="st2" d="M92.6,49.5c-2.7-1.5-4.8-3.6-6.3-6.5c-1.4-2.8-2.1-6.2-2.1-10.2V0.5h8.4v32.6c0,3.3,0.9,5.9,2.6,7.7
		c1.7,1.8,4.2,2.7,7.3,2.7c3.2,0,5.6-0.9,7.4-2.7c1.7-1.8,2.6-4.4,2.6-7.7V0.5h8.4v32.4c0,4-0.7,7.4-2.2,10.2
		c-1.4,2.8-3.5,5-6.3,6.5c-2.7,1.5-6.1,2.2-9.9,2.2C98.6,51.7,95.3,51,92.6,49.5z"/>
	<path class="st2" d="M161,23.4v9.4c0,3.8-0.8,7.1-2.3,10c-1.5,2.9-3.7,5.1-6.4,6.7c-2.8,1.6-6,2.4-9.6,2.4c-3.7,0-6.9-0.7-9.7-2.2
		c-2.8-1.5-5-3.6-6.5-6.3c-1.5-2.7-2.3-5.8-2.3-9.4v-15c0-3.8,0.8-7.1,2.3-9.9c1.5-2.9,3.7-5.1,6.4-6.6c2.8-1.6,6-2.4,9.6-2.4
		c3,0,5.7,0.6,8.3,1.9c2.5,1.2,4.7,3,6.3,5.3c1.7,2.3,2.8,4.9,3.5,7.9h-9.1c-0.4-1.4-1.1-2.6-2-3.6c-0.9-1-2-1.8-3.2-2.3
		s-2.5-0.8-3.8-0.8c-1.9,0-3.6,0.4-5.1,1.3c-1.4,0.9-2.6,2.1-3.4,3.7c-0.8,1.6-1.2,3.4-1.2,5.5v15c0,1.9,0.4,3.5,1.2,5
		c0.8,1.4,2,2.5,3.5,3.3c1.5,0.8,3.2,1.2,5.2,1.2c1.9,0,3.6-0.4,5.1-1.2c1.5-0.8,2.6-2,3.4-3.6c0.8-1.6,1.2-3.4,1.2-5.6v-1.5h-9.1
		v-8H161z"/>
	<path class="st2" d="M165.8,0.5h8.4v50.7h-8.4V0.5z M170.3,22.2h29.1v8h-29.1V22.2z M194.4,0.5h8.4v50.7h-8.4V0.5z"/>
	<path class="st2" d="M205.2,0.5H242v8h-36.8V0.5z M219.4,4.7h8.4v46.6h-8.4V4.7z"/>
	<path class="st2" d="M250.2,51c-2.3-0.5-4.4-1.2-6.4-2.1c-2-0.9-3.8-2.1-5.4-3.5l4.5-6.7c2,1.7,4.2,2.9,6.6,3.7
		c2.5,0.8,5.1,1.3,7.8,1.3c3.4,0,6.1-0.6,8-1.8c1.9-1.2,2.8-2.9,2.8-5.1v0c0-1.6-0.4-2.8-1.3-3.7c-0.8-0.9-2-1.6-3.3-2
		c-1.4-0.4-3.1-0.8-5.2-1.2c-0.1,0-0.1,0-0.2,0c-0.1,0-0.1,0-0.2,0l-0.6-0.1c-3.4-0.6-6.2-1.2-8.5-2c-2.2-0.8-4.1-2.1-5.6-4.1
		c-1.6-2-2.3-4.8-2.3-8.4v0c0-3.2,0.7-6,2.2-8.2c1.5-2.3,3.6-4,6.3-5.2c2.8-1.2,6.1-1.8,10-1.8c1.8,0,3.7,0.2,5.5,0.6
		c1.8,0.4,3.7,1,5.4,1.8c1.8,0.8,3.5,1.7,5.2,2.9l-4.1,6.9c-2-1.4-4-2.5-6-3.2c-2-0.7-4-1.1-6-1.1c-3.2,0-5.7,0.6-7.5,1.8
		c-1.8,1.2-2.7,2.8-2.7,5v0c0,1.6,0.5,2.9,1.4,3.8c0.9,0.9,2.1,1.6,3.4,2c1.4,0.4,3.3,0.9,5.8,1.4c0.1,0,0.2,0,0.3,0.1
		c0.1,0,0.2,0,0.3,0.1c0.1,0,0.2,0,0.4,0.1c0.1,0,0.3,0,0.4,0.1c3.2,0.6,5.8,1.4,7.9,2.3c2.1,0.9,3.9,2.3,5.3,4.3
		c1.4,2,2.1,4.6,2.1,8v0.1c0,3.2-0.8,5.9-2.3,8.1c-1.5,2.3-3.7,4-6.6,5.1c-2.9,1.2-6.3,1.8-10.4,1.8C254.8,51.7,252.4,51.5,250.2,51
		z"/>
</g>
<g>
	<path class="st3" d="M8.5,107.3c-2.7-1.5-4.8-3.7-6.3-6.6C0.7,97.9,0,94.5,0,90.6V76.5c0-3.9,0.7-7.3,2.2-10.2
		c1.5-2.9,3.6-5.1,6.3-6.6c2.7-1.5,6-2.3,9.7-2.3c3.1,0,5.9,0.7,8.4,2c2.5,1.3,4.6,3.2,6.2,5.7c1.7,2.5,2.8,5.4,3.4,8.8h-8.7
		c-0.4-1.6-1.1-3.1-2-4.3s-2-2.2-3.3-2.8c-1.3-0.7-2.6-1-4.1-1c-1.9,0-3.6,0.4-5.1,1.3c-1.4,0.9-2.5,2.1-3.3,3.8s-1.2,3.5-1.2,5.7
		v14.1c0,2.2,0.4,4.1,1.2,5.7s1.9,2.9,3.3,3.7c1.4,0.9,3.1,1.3,5.1,1.3c1.5,0,2.8-0.3,4.1-1c1.3-0.6,2.3-1.6,3.3-2.8
		c0.9-1.2,1.6-2.7,2-4.4h8.7c-0.6,3.4-1.8,6.3-3.4,8.8c-1.7,2.5-3.7,4.4-6.2,5.7c-2.5,1.3-5.3,2-8.3,2
		C14.5,109.6,11.2,108.9,8.5,107.3z"/>
	<path class="st3" d="M39.6,57.9H48v51.8h-8.4V57.9z M43.1,79.9h17.6c1.2,0,2.2-0.3,3.1-0.9c0.9-0.6,1.6-1.4,2.1-2.4
		c0.5-1.1,0.8-2.3,0.8-3.7c0-1.4-0.2-2.6-0.7-3.7s-1.2-1.9-2.1-2.4c-0.9-0.6-2-0.9-3.2-0.9H43.1v-8.1H61c2.9,0,5.4,0.6,7.6,1.9
		s3.9,3,5.1,5.3c1.2,2.3,1.8,4.9,1.8,7.9c0,3-0.6,5.6-1.8,7.9c-1.2,2.3-2.9,4-5.1,5.3C66.4,87.4,63.8,88,61,88H43.1V79.9z
		 M55.4,86.4l8.7-1.6l13.5,24.9H67.5L55.4,86.4z"/>
	<path class="st3" d="M87.5,107.3c-2.8-1.6-4.9-3.8-6.4-6.6c-1.5-2.9-2.3-6.2-2.3-9.9V76.2c0-3.8,0.8-7.1,2.3-9.9
		c1.5-2.9,3.7-5.1,6.4-6.6c2.8-1.6,6-2.3,9.6-2.3s6.8,0.8,9.6,2.3c2.8,1.6,4.9,3.8,6.4,6.6s2.3,6.2,2.3,9.9v14.5
		c0,3.8-0.8,7.1-2.3,9.9s-3.7,5.1-6.4,6.6c-2.8,1.6-6,2.3-9.6,2.3S90.2,108.9,87.5,107.3z M102.2,100c1.5-0.8,2.6-2,3.4-3.6
		c0.8-1.6,1.2-3.4,1.2-5.4V76c0-2-0.4-3.8-1.2-5.4c-0.8-1.6-1.9-2.8-3.4-3.6c-1.5-0.8-3.2-1.3-5.1-1.3S93.5,66.1,92,67
		c-1.5,0.8-2.6,2-3.4,3.6S87.4,74,87.4,76v15c0,2,0.4,3.8,1.2,5.4c0.8,1.6,1.9,2.8,3.4,3.6c1.5,0.8,3.2,1.3,5.1,1.3
		S100.7,100.9,102.2,100z"/>
	<path class="st3" d="M128.2,108.9c-2.3-0.5-4.4-1.2-6.4-2.1c-2-0.9-3.8-2.1-5.4-3.5l4.5-6.7c2,1.7,4.2,2.9,6.6,3.8
		c2.5,0.9,5.1,1.3,7.8,1.3c3.4,0,6.1-0.6,8-1.8s2.8-2.9,2.8-5.2v0c0-1.6-0.4-2.8-1.3-3.8c-0.8-0.9-1.9-1.6-3.3-2
		c-1.4-0.4-3.1-0.8-5.2-1.2c-0.1,0-0.1,0-0.2,0s-0.1,0-0.2,0l-0.6-0.1c-3.4-0.6-6.2-1.2-8.5-2c-2.2-0.8-4.1-2.2-5.6-4.2
		c-1.5-2-2.3-4.8-2.3-8.5v0c0-3.2,0.7-6,2.2-8.3c1.5-2.3,3.6-4.1,6.3-5.2c2.8-1.2,6.1-1.8,10-1.8c1.8,0,3.7,0.2,5.5,0.6
		c1.8,0.4,3.7,1,5.4,1.8c1.8,0.8,3.5,1.8,5.2,2.9l-4.1,6.9c-2-1.4-4-2.5-6-3.2c-2-0.7-4-1.1-6-1.1c-3.2,0-5.7,0.6-7.5,1.8
		c-1.8,1.2-2.7,2.9-2.7,5v0c0,1.6,0.5,2.9,1.4,3.8c0.9,0.9,2.1,1.6,3.4,2.1s3.3,0.9,5.8,1.4c0.1,0,0.2,0,0.3,0.1s0.2,0,0.3,0.1
		c0.1,0,0.2,0,0.4,0.1c0.1,0,0.3,0,0.4,0.1c3.2,0.6,5.8,1.4,7.9,2.3c2.1,0.9,3.9,2.3,5.3,4.3c1.4,2,2.1,4.7,2.1,8.1v0.1
		c0,3.2-0.8,5.9-2.3,8.2c-1.5,2.3-3.7,4-6.6,5.2c-2.9,1.2-6.3,1.8-10.4,1.8C132.8,109.6,130.4,109.4,128.2,108.9z"/>
	<path class="st3" d="M165.8,108.9c-2.3-0.5-4.4-1.2-6.4-2.1c-2-0.9-3.8-2.1-5.4-3.5l4.5-6.7c2,1.7,4.2,2.9,6.6,3.8
		c2.5,0.9,5.1,1.3,7.8,1.3c3.4,0,6.1-0.6,8-1.8s2.8-2.9,2.8-5.2v0c0-1.6-0.4-2.8-1.3-3.8c-0.8-0.9-1.9-1.6-3.3-2
		c-1.4-0.4-3.1-0.8-5.2-1.2c-0.1,0-0.1,0-0.2,0s-0.1,0-0.2,0l-0.6-0.1c-3.4-0.6-6.2-1.2-8.5-2c-2.2-0.8-4.1-2.2-5.6-4.2
		c-1.5-2-2.3-4.8-2.3-8.5v0c0-3.2,0.7-6,2.2-8.3c1.5-2.3,3.6-4.1,6.3-5.2s6.1-1.8,10-1.8c1.8,0,3.7,0.2,5.5,0.6
		c1.8,0.4,3.7,1,5.4,1.8c1.8,0.8,3.5,1.8,5.2,2.9l-4.1,6.9c-2-1.4-4-2.5-6-3.2c-2-0.7-4-1.1-6-1.1c-3.2,0-5.7,0.6-7.5,1.8
		c-1.8,1.2-2.7,2.9-2.7,5v0c0,1.6,0.5,2.9,1.4,3.8c0.9,0.9,2.1,1.6,3.4,2.1s3.3,0.9,5.8,1.4c0.1,0,0.2,0,0.3,0.1s0.2,0,0.3,0.1
		c0.1,0,0.2,0,0.4,0.1c0.1,0,0.3,0,0.4,0.1c3.2,0.6,5.8,1.4,7.9,2.3c2.1,0.9,3.9,2.3,5.3,4.3c1.4,2,2.1,4.7,2.1,8.1v0.1
		c0,3.2-0.8,5.9-2.3,8.2c-1.5,2.3-3.7,4-6.6,5.2c-2.9,1.2-6.3,1.8-10.4,1.8C170.4,109.6,168.1,109.4,165.8,108.9z"/>
	<path class="st3" d="M195.4,57.9h8.4v51.7l-8.4,0V57.9z M198.9,57.9H229V66h-30.1V57.9z M198.9,79.7h26.2v8h-26.2V79.7z M198.9,101
		H229v8.6h-30.1V101z"/>
	<path class="st3" d="M241.8,108.9c-2.3-0.5-4.4-1.2-6.4-2.1c-2-0.9-3.8-2.1-5.4-3.5l4.5-6.7c2,1.7,4.2,2.9,6.6,3.8
		c2.5,0.9,5.1,1.3,7.8,1.3c3.4,0,6.1-0.6,8-1.8c1.9-1.2,2.8-2.9,2.8-5.2v0c0-1.6-0.4-2.8-1.3-3.8c-0.8-0.9-2-1.6-3.3-2
		c-1.4-0.4-3.1-0.8-5.2-1.2c-0.1,0-0.1,0-0.2,0c-0.1,0-0.1,0-0.2,0l-0.6-0.1c-3.4-0.6-6.2-1.2-8.5-2c-2.2-0.8-4.1-2.2-5.6-4.2
		c-1.6-2-2.3-4.8-2.3-8.5v0c0-3.2,0.7-6,2.2-8.3c1.5-2.3,3.6-4.1,6.3-5.2c2.8-1.2,6.1-1.8,10-1.8c1.8,0,3.7,0.2,5.5,0.6
		c1.8,0.4,3.7,1,5.4,1.8c1.8,0.8,3.5,1.8,5.2,2.9l-4.1,6.9c-2-1.4-4-2.5-6-3.2c-2-0.7-4-1.1-6-1.1c-3.2,0-5.7,0.6-7.5,1.8
		c-1.8,1.2-2.7,2.9-2.7,5v0c0,1.6,0.5,2.9,1.4,3.8c0.9,0.9,2.1,1.6,3.4,2.1s3.3,0.9,5.8,1.4c0.1,0,0.2,0,0.3,0.1
		c0.1,0,0.2,0,0.3,0.1c0.1,0,0.2,0,0.4,0.1c0.1,0,0.3,0,0.4,0.1c3.2,0.6,5.8,1.4,7.9,2.3c2.1,0.9,3.9,2.3,5.3,4.3
		c1.4,2,2.1,4.7,2.1,8.1v0.1c0,3.2-0.8,5.9-2.3,8.2c-1.5,2.3-3.7,4-6.6,5.2c-2.9,1.2-6.3,1.8-10.4,1.8
		C246.4,109.6,244.1,109.4,241.8,108.9z"/>
</g>
</svg>
